<svg width="20" height="20" viewBox="0 0 20 20" fill="none" xmlns="http://www.w3.org/2000/svg">
<mask id="mask0_1709_22" style="mask-type:luminance" maskUnits="userSpaceOnUse" x="0" y="0" width="20" height="20">
<path d="M20 0H0V20H20V0Z" fill="white"/>
</mask>
<g mask="url(#mask0_1709_22)">
<path d="M17.9998 11.6698C17.9998 11.138 17.9511 10.6267 17.8606 10.1357H10.6528V13.0368H14.7716C14.5942 13.9743 14.055 14.7686 13.2445 15.3004V17.1822H15.7178C17.1649 15.8766 17.9998 13.9538 17.9998 11.6698Z" fill="#4285F4"/>
<path d="M10.653 18.9997C12.7194 18.9997 14.4517 18.3281 15.7179 17.1827L13.2446 15.3009C12.5593 15.7509 11.6827 16.0168 10.653 16.0168C8.65973 16.0168 6.97261 14.6975 6.37078 12.9248H3.81396V14.8679C5.07328 17.319 7.66139 18.9997 10.653 18.9997Z" fill="#34A853"/>
<path d="M6.37079 12.9249C6.21773 12.4749 6.13079 11.9943 6.13079 11.4999C6.13079 11.0056 6.21773 10.525 6.37079 10.075V8.13184H3.81398C3.29571 9.14432 3 10.2898 3 11.4999C3 12.7101 3.29571 13.8556 3.81398 14.8681L6.37079 12.9249Z" fill="#FBBC04"/>
<path d="M10.653 6.98292C11.7766 6.98292 12.7854 7.36128 13.5786 8.10444L15.7736 5.95334C14.4483 4.74316 12.7159 4 10.653 4C7.66139 4 5.07328 5.68064 3.81396 8.13174L6.37078 10.0749C6.97261 8.30222 8.65973 6.98292 10.653 6.98292Z" fill="#E94235"/>
</g>
</svg>
